<svg xmlns="http://www.w3.org/2000/svg" viewBox="0 0 128 128" width="128" height="128" role="img" aria-labelledby="t">
<title id="t">Spread Love &amp; Acceptance (waving hello)</title><desc>A wink, a wave and a happy squeeze.</desc><style>.k{fill:#252120}.i{fill:none;stroke:#2B2620;stroke-width:3;stroke-linecap:round;stroke-linejoin:round}.c{fill:#F4A2B8}.w{fill:#fff}.t{fill:#C9965F}.s{fill:#C4834A}.n{fill:#121010}.m{fill:#3A1E22}.p{fill:#EE8FA6}.e{fill:#3A2418}.g{fill:#FAD27A;stroke:#DDA23A;stroke-linejoin:round}</style>
<defs><radialGradient id="gl"><stop offset="0" stop-color="#FAD27A" stop-opacity=".9"/><stop offset=".55" stop-color="#FAD27A" stop-opacity=".45"/><stop offset="1" stop-color="#FAD27A" stop-opacity="0"/></radialGradient></defs>
<g transform="translate(22 -3) scale(.66)">
<path d="M46 32c-1-7 5-12 10-7" fill="none" stroke="#E0957B" stroke-width="3.2" stroke-linecap="round"/>
<path d="M46 31C67 30 82 47 82 70C82 94 67 109 45 109C22 109 7 95 8 71C9 48 25 32 46 31Z" fill="#FCD5C2" stroke="#E0957B" stroke-width="3.2"/>
<ellipse cx="30" cy="47" rx="8" ry="4.5" transform="rotate(-35 30 47)" class="w" opacity=".75"/>
<path d="M77 50C89 45 110 45 117 53C123 61 123 90 118 100C112 110 81 111 73 103C65 95 65 56 77 50Z" fill="#DCCEF4" stroke="#9C83D0" stroke-width="3.2"/>
<ellipse cx="85" cy="56" rx="6.5" ry="3.6" transform="rotate(-20 85 56)" class="w" opacity=".75"/>
<path d="M116 66Q126 58 122 44" fill="none" stroke="#9C83D0" stroke-width="11" stroke-linecap="round"/>
<path d="M116 66Q126 58 122 44" fill="none" stroke="#C7B2EE" stroke-width="5.2" stroke-linecap="round"/>
<circle cx="122" cy="42" r="5.2" fill="#C7B2EE" stroke="#9C83D0" stroke-width="2.4"/>
<path d="M112 36q1-4 4-6M125 33q2-3 1-7" fill="none" stroke="#9C83D0" stroke-width="2.4" stroke-linecap="round"/>
<path class="i" d="M28 66q5-6 10 0M86 67l7 4-7 4M110 67l-7 4 7 4M94 80q4.5 5 9 0"/>
<circle cx="50" cy="64" r="4.2" fill="#2B2620"/><circle class="w" cx="51.6" cy="62.4" r="1.4"/>
<path d="M35 71h13q-1 9-6.5 9T35 71Z" fill="#2B2620"/><path d="M38 76.5q3.5-3 7 0q-1 3.4-3.5 3.4T38 76.5Z" fill="#F07C98"/>
<ellipse class="c" cx="25" cy="74" rx="4.8" ry="3.1"/><ellipse class="c" cx="58" cy="74" rx="4.8" ry="3.1"/><ellipse class="c" cx="83" cy="82" rx="4.8" ry="3.1"/><ellipse class="c" cx="114" cy="82" rx="4.4" ry="3.1"/>
<circle cx="66" cy="98" r="24" fill="url(#gl)"/>
<path d="M66 91C60 82 46 86 49 97C51 105 66 113 66 113S81 105 83 97C86 86 72 82 66 91Z" fill="#F08DA8" stroke="#D2668A" stroke-width="3" stroke-linejoin="round"/>
<ellipse cx="57" cy="92" rx="3.2" ry="2" transform="rotate(-30 57 92)" class="w" opacity=".7"/>
<ellipse cx="51" cy="100" rx="6.2" ry="4.6" transform="rotate(-30 51 100)" fill="#F6B99F" stroke="#E0957B" stroke-width="2.4"/>
<ellipse cx="81" cy="100" rx="6.2" ry="4.6" transform="rotate(30 81 100)" fill="#C7B2EE" stroke="#9C83D0" stroke-width="2.4"/>
</g>
<g transform="translate(32 78)"><path d="M-14 30Q-27 27-26 13" fill="none" stroke="#252120" stroke-width="6" stroke-linecap="round"/><path d="M-15 28Q-24 24-23.5 15" fill="none" stroke="#C9965F" stroke-width="1.5" stroke-linecap="round"/><path class="k" d="M-18 38C-19 26-12 17 0 17S19 26 18 38Z"/><rect x="-12" y="27" width="8" height="9" rx="4" fill="#B97847"/><rect x="4" y="27" width="8" height="9" rx="4" fill="#B97847"/><ellipse cx="-8" cy="36" rx="6" ry="3.8" fill="#F1EADF"/><ellipse cx="8" cy="36" rx="6" ry="3.8" fill="#F1EADF"/><ellipse cx="0" cy="24" rx="1.8" ry="3.5" fill="#F2ECE3"/><ellipse class="k" cx="-17" cy="5" rx="7" ry="14" transform="rotate(18 -17 5)"/><ellipse class="k" cx="17" cy="5" rx="7" ry="14" transform="rotate(-18 17 5)"/><ellipse class="k" cx="0" cy="0" rx="17" ry="15.5"/><ellipse cx="0" cy="7" rx="13" ry="9" class="t"/><ellipse cx="-7" cy="-8.5" rx="3.8" ry="2.3" transform="rotate(-15 -7 -8.5)" class="t"/><ellipse cx="7" cy="-8.5" rx="3.8" ry="2.3" transform="rotate(15 7 -8.5)" class="t"/><path d="M-9.5-1.5q3-3.5 6 0" fill="none" stroke="#3A2418" stroke-width="2" stroke-linecap="round"/><ellipse class="k" cx="6.5" cy="-2" rx="3.7" ry="3.3"/><circle cx="6.5" cy="-2" r="2.4" class="e"/><circle class="w" cx="7.4" cy="-2.9" r=".9"/><ellipse cx="0" cy="3.6" rx="4.2" ry="3" class="n"/><ellipse class="c" cx="-10.5" cy="8" rx="2.6" ry="1.5" opacity=".8"/><ellipse class="c" cx="10.5" cy="8" rx="2.6" ry="1.5" opacity=".8"/><path d="M-8.5 8Q0 20 8.5 8Q0 11-8.5 8Z" class="m"/><ellipse cx="0" cy="13.6" rx="3.3" ry="3" class="p"/></g>
<g transform="translate(94 78)"><path d="M13 30Q21 26 22 18" fill="none" stroke="#252120" stroke-width="5" stroke-linecap="round"/><path d="M25.5 13.5q3.5 4 1.5 9.5M29.5 16q2.5 3 .5 7" fill="none" stroke="#9C83D0" stroke-width="1.8" stroke-linecap="round"/><path class="k" d="M-14 38C-15 28-9 19 0 19S15 28 14 38Z"/><ellipse cx="-4.5" cy="25.5" rx="3" ry="2.4" class="s"/><ellipse cx="4.5" cy="25.5" rx="3" ry="2.4" class="s"/><rect x="-10" y="28" width="7" height="8" rx="3.5" fill="#C98A4F"/><rect x="3" y="28" width="7" height="8" rx="3.5" fill="#C98A4F"/><ellipse cx="-6.5" cy="36" rx="5" ry="3.3" fill="#D99E62"/><ellipse cx="6.5" cy="36" rx="5" ry="3.3" fill="#D99E62"/><path d="M-11 16Q0 24 11 16" fill="none" stroke="#141111" stroke-width="3.6"/><path d="M-11 14.6Q0 22.6 11 14.6" fill="none" stroke="#6B625E" stroke-width=".8"/><path class="g" stroke-width="8" transform="translate(0 19.5) scale(0.13)" d="M0 12C-10-2-30 4-26 20-23 32 0 44 0 44S23 32 26 20C30 4 10-2 0 12Z"/><ellipse class="k" cx="0" cy="0" rx="15.5" ry="15"/><ellipse cx="0" cy="8" rx="10" ry="6.5" class="s"/><ellipse class="k" cx="0" cy="2.5" rx="3.2" ry="6"/><path class="k" d="M-15.5-5Q-14-16-5-13.5Q-8-7-13.5-3ZM15.5-5Q14-16 5-13.5Q8-7 13.5-3Z"/><path d="M-13.5-3.5Q-8.5-7-5.5-12.5M13.5-3.5Q8.5-7 5.5-12.5" fill="none" stroke="#B97A43" stroke-width="1.2"/><circle cx="-6" cy="-7.2" r="2.7" fill="#D69B5F"/><circle cx="6" cy="-7.2" r="2.7" fill="#D69B5F"/><path d="M-8.5-2q2.5-3 5 0M3.5-2q2.5-3 5 0" fill="none" stroke="#D69B5F" stroke-width="2" stroke-linecap="round"/><ellipse cx="0" cy="5.5" rx="3.8" ry="2.7" class="n"/><ellipse cx="2.6" cy="14" rx="2.4" ry="3.4" class="p"/><path d="M-6 10q3 3 6 0q3 3 6 0" fill="none" stroke="#3A1E22" stroke-width="1.8" stroke-linecap="round"/></g>
<path class="g" stroke-width="6" transform="translate(63 96) scale(0.3)" d="M0 12C-10-2-30 4-26 20-23 32 0 44 0 44S23 32 26 20C30 4 10-2 0 12Z"/>
<path class="g" stroke-width="1.8" d="M12 15Q13.54 20.46 19 22Q13.54 23.54 12 29Q10.46 23.54 5 22Q10.46 20.46 12 15Z"/><path class="g" stroke-width="1.8" d="M110 7Q111.1 10.9 115 12Q111.1 13.1 110 17Q108.9 13.1 105 12Q108.9 10.9 110 7Z"/><circle cx="8" cy="44" r="2" fill="#F08DA8"/>
</svg>
