<svg xmlns="http://www.w3.org/2000/svg" viewBox="0 0 100 100"> <defs><radialGradient id="b3" cx="42%" cy="38%" r="62%"><stop offset="0" stop-color="#fff" stop-opacity=".95"/><stop offset=".6" stop-color="#EFE6FA" stop-opacity=".75"/><stop offset="1" stop-color="#C6B2EA" stop-opacity=".95"/></radialGradient> <linearGradient id="b3s" x1="0" y1="0" x2="1" y2="1"><stop offset="0" stop-color="#C6DFF4"/><stop offset=".5" stop-color="#D9C8F0"/><stop offset="1" stop-color="#C7EBD6"/></linearGradient></defs> <circle cx="50" cy="52" r="40" fill="url(#b3)" stroke="#C6B2EA" stroke-width="2.8000000000000003"/> <path d="M60 89.2A38.8 38.8 0 0 0 87.2 62" fill="none" stroke="url(#b3s)" stroke-width="4.8" stroke-linecap="round" opacity=".9"/> <ellipse cx="34.8" cy="35.2" rx="10.4" ry="6" transform="rotate(-35 34.8 35.2)" fill="#fff" opacity=".95"/> <circle cx="46" cy="27.2" r="2.4" fill="#fff"/><path transform="translate(50 34) scale(0.8)" d="M0 12C-10-2-30 4-26 20-23 32 0 44 0 44S23 32 26 20C30 4 10-2 0 12Z" fill="#F7B8C6" stroke="#D9728B" stroke-width="3"/><ellipse transform="translate(50 34) scale(0.8)" cx="-13" cy="12" rx="5" ry="3" fill="#fff" opacity=".6"/><g transform="translate(50 58) scale(0.9)"> <circle cx="-7" cy="0" r="2.9" fill="#2B2620"/><circle cx="7" cy="0" r="2.9" fill="#2B2620"/> <circle cx="-6" cy="-1" r="1" fill="#fff"/><circle cx="8" cy="-1" r="1" fill="#fff"/> <path d="M-4 6c2.6 2.6 5.4 2.6 8 0" fill="none" stroke="#2B2620" stroke-width="2.1" stroke-linecap="round"/> <ellipse cx="-12" cy="5" rx="3.6" ry="2.3" fill="#F2A3B6" opacity=".9"/><ellipse cx="12" cy="5" rx="3.6" ry="2.3" fill="#F2A3B6" opacity=".9"/></g> <defs><radialGradient id="b4" cx="42%" cy="38%" r="62%"><stop offset="0" stop-color="#fff" stop-opacity=".95"/><stop offset=".6" stop-color="#FBDCCB" stop-opacity=".75"/><stop offset="1" stop-color="#EBA88E" stop-opacity=".95"/></radialGradient> <linearGradient id="b4s" x1="0" y1="0" x2="1" y2="1"><stop offset="0" stop-color="#C6DFF4"/><stop offset=".5" stop-color="#D9C8F0"/><stop offset="1" stop-color="#C7EBD6"/></linearGradient></defs> <circle cx="88" cy="16" r="7" fill="url(#b4)" stroke="#EBA88E" stroke-width="1"/> <path d="M89.75 22.51A6.79 6.79 0 0 0 94.51 17.75" fill="none" stroke="url(#b4s)" stroke-width="0.84" stroke-linecap="round" opacity=".9"/> <ellipse cx="85.34" cy="13.06" rx="1.82" ry="1.05" transform="rotate(-35 85.34 13.06)" fill="#fff" opacity=".95"/> <circle cx="87.3" cy="11.66" r="0.42" fill="#fff"/> <defs><radialGradient id="b5" cx="42%" cy="38%" r="62%"><stop offset="0" stop-color="#fff" stop-opacity=".95"/><stop offset=".6" stop-color="#DDF1E6" stop-opacity=".75"/><stop offset="1" stop-color="#98D2B2" stop-opacity=".95"/></radialGradient> <linearGradient id="b5s" x1="0" y1="0" x2="1" y2="1"><stop offset="0" stop-color="#C6DFF4"/><stop offset=".5" stop-color="#D9C8F0"/><stop offset="1" stop-color="#C7EBD6"/></linearGradient></defs> <circle cx="12" cy="86" r="5" fill="url(#b5)" stroke="#98D2B2" stroke-width="1"/> <path d="M13.25 90.65A4.85 4.85 0 0 0 16.65 87.25" fill="none" stroke="url(#b5s)" stroke-width="0.6" stroke-linecap="round" opacity=".9"/> <ellipse cx="10.1" cy="83.9" rx="1.3" ry="0.75" transform="rotate(-35 10.1 83.9)" fill="#fff" opacity=".95"/> <circle cx="11.5" cy="82.9" r="0.3" fill="#fff"/> <defs><radialGradient id="b6" cx="42%" cy="38%" r="62%"><stop offset="0" stop-color="#fff" stop-opacity=".95"/><stop offset=".6" stop-color="#F7C9D4" stop-opacity=".75"/><stop offset="1" stop-color="#EDA3B6" stop-opacity=".95"/></radialGradient> <linearGradient id="b6s" x1="0" y1="0" x2="1" y2="1"><stop offset="0" stop-color="#C6DFF4"/><stop offset=".5" stop-color="#D9C8F0"/><stop offset="1" stop-color="#C7EBD6"/></linearGradient></defs> <circle cx="92" cy="84" r="4" fill="url(#b6)" stroke="#EDA3B6" stroke-width="1"/> <path d="M93 87.72A3.88 3.88 0 0 0 95.72 85" fill="none" stroke="url(#b6s)" stroke-width="0.48" stroke-linecap="round" opacity=".9"/> <ellipse cx="90.48" cy="82.32" rx="1.04" ry="0.6" transform="rotate(-35 90.48 82.32)" fill="#fff" opacity=".95"/> <circle cx="91.6" cy="81.52" r="0.24" fill="#fff"/></svg>
