<svg xmlns="http://www.w3.org/2000/svg" viewBox="0 0 100 100"><g transform="translate(2 22) scale(.62) rotate(-8 40 40)"><path d="M40 8c17 0 30 11 32 27 2 17-8 34-30 36C19 73 7 60 8 43 9 23 22 8 40 8z" fill="#F9C9B4" stroke="#E9A088" stroke-width="2.6"/><ellipse cx="30" cy="20" rx="7" ry="4" fill="#fff" opacity=".6" transform="rotate(-20 30 20)"/></g><g transform="translate(27 49) scale(0.8)"> <circle cx="-4.5" cy="0" r="2.9" fill="#2B2620"/><circle cx="9.5" cy="0" r="2.9" fill="#2B2620"/> <circle cx="-3.5" cy="-1" r="1" fill="#fff"/><circle cx="10.5" cy="-1" r="1" fill="#fff"/> <path d="M-1.5 6c2.6 2.6 5.4 2.6 8 0" fill="none" stroke="#2B2620" stroke-width="2.1" stroke-linecap="round"/> <ellipse cx="-9.5" cy="5" rx="3.6" ry="2.3" fill="#F2A3B6" opacity=".85"/><ellipse cx="14.5" cy="5" rx="3.6" ry="2.3" fill="#F2A3B6" opacity=".85"/></g> <g transform="translate(48 22) scale(.62) rotate(8 40 40)"><path d="M40 8c17 0 30 11 32 27 2 17-8 34-30 36C19 73 7 60 8 43 9 23 22 8 40 8z" fill="#D9C8F0" stroke="#B9A0E0" stroke-width="2.6"/><ellipse cx="30" cy="20" rx="7" ry="4" fill="#fff" opacity=".6" transform="rotate(-20 30 20)"/></g><g transform="translate(73 49) scale(0.8)"> <circle cx="-9.5" cy="0" r="2.9" fill="#2B2620"/><circle cx="4.5" cy="0" r="2.9" fill="#2B2620"/> <circle cx="-8.5" cy="-1" r="1" fill="#fff"/><circle cx="5.5" cy="-1" r="1" fill="#fff"/> <path d="M-6.5 6c2.6 2.6 5.4 2.6 8 0" fill="none" stroke="#2B2620" stroke-width="2.1" stroke-linecap="round"/> <ellipse cx="-14.5" cy="5" rx="3.6" ry="2.3" fill="#F2A3B6" opacity=".85"/><ellipse cx="9.5" cy="5" rx="3.6" ry="2.3" fill="#F2A3B6" opacity=".85"/></g> <path transform="translate(50 8) scale(0.36)" d="M0 12C-10-2-30 4-26 20-23 32 0 44 0 44S23 32 26 20C30 4 10-2 0 12Z" fill="#EE8FA6" stroke="#D9728B" stroke-width="3"/></svg>
